<?xml version="1.0" encoding="UTF-8"?>
<svg xmlns="http://www.w3.org/2000/svg" xmlns:xlink="http://www.w3.org/1999/xlink" width="449.5pt" height="552.23pt" viewBox="0 0 449.5 552.23" version="1.1">
<g id="surface1">
<path style=" stroke:none;fill-rule:nonzero;fill:rgb(92.498779%,90.99884%,23.899841%);fill-opacity:1;" d="M 177.394531 2.890625 C 198.601563 2.890625 219.253906 8.191406 239.0625 19.070313 C 259.152344 29.949219 274.773438 45.300781 286.214844 65.671875 C 297.652344 85.761719 303.234375 106.679688 303.234375 128.449219 C 303.234375 150.492188 297.652344 171.421875 286.773438 191.230469 C 275.894531 211.039063 260.261719 226.660156 240.171875 237.539063 C 220.082031 248.421875 199.164063 254 177.394531 254 C 155.914063 254 134.984375 248.421875 114.894531 237.539063 C 94.804688 226.660156 79.183594 211.039063 68.300781 191.230469 C 57.421875 171.421875 51.84375 150.492188 51.84375 128.449219 C 51.84375 106.679688 57.421875 85.761719 68.582031 65.671875 C 80.023438 45.300781 95.644531 29.949219 115.453125 19.070313 C 135.542969 8.191406 156.191406 2.890625 177.394531 2.890625 "/>
<path style=" stroke:none;fill-rule:nonzero;fill:rgb(5.899048%,31.799316%,16.099548%);fill-opacity:1;" d="M 113.28125 493.582031 C 111.890625 519.53125 136.441406 543.25 161.550781 542.128906 C 187.5 543.25 211.5 519.53125 210.378906 493.582031 C 211.5 467.359375 186.941406 443.921875 161.550781 445.3125 C 154.578125 445.3125 145.089844 445.3125 140.898438 446.152344 C 136.71875 446.429688 131.699219 445.039063 130.300781 441.410156 C 128.910156 437.222656 130.300781 431.359375 134.769531 429.132813 C 139.230469 426.621094 140.628906 426.621094 143.691406 423.550781 C 138.109375 419.371094 134.210938 415.460938 132.261719 412.390625 C 128.628906 405.691406 127.230469 395.929688 131.421875 388.949219 C 135.050781 381.980469 143.96875 377.511719 153.179688 378.351563 C 157.921875 378.632813 161.550781 379.472656 164.339844 380.300781 C 167.128906 381.140625 171.878906 384.210938 178.851563 388.949219 L 180.53125 385.332031 C 186.109375 374.722656 173.828125 381.699219 174.941406 373.890625 C 175.21875 366.351563 186.660156 367.191406 184.988281 373.890625 C 189.171875 376.960938 190.011719 378.351563 189.171875 380.582031 C 188.898438 382.539063 185.828125 383.371094 183.589844 393.140625 C 194.761719 407.371094 193.640625 415.460938 190.011719 422.441406 C 183.589844 433.320313 167.96875 436.390625 154.859375 429.132813 L 148.71875 427.179688 C 142.300781 431.921875 138.109375 432.199219 137 435.269531 C 137 440.570313 138.390625 440.570313 161.550781 438.339844 C 191.128906 436.941406 220.148438 464.570313 219.03125 495.261719 C 220.421875 525.109375 191.96875 553.570313 161.550781 552.179688 C 131.980469 553.570313 102.960938 525.109375 104.628906 495.261719 L 104.628906 491.351563 L 104.910156 491.351563 C 105.191406 484.378906 107.140625 477.402344 111.050781 470.980469 C 114.960938 464.289063 120.539063 459.269531 127.511719 455.640625 C 132.261719 453.691406 137.28125 452.289063 142.578125 451.730469 C 146.761719 452.011719 150.390625 452.570313 153.460938 453.410156 C 159.878906 455.640625 164.339844 460.101563 164.339844 465.679688 C 163.230469 473.222656 153.460938 471.539063 153.460938 466.242188 C 154.019531 460.378906 152.898438 458.992188 144.25 458.429688 C 140.070313 458.992188 135.601563 460.378906 131.421875 462.332031 C 125.558594 465.402344 121.089844 469.589844 118.03125 474.890625 C 114.960938 479.910156 113.28125 486.050781 113.28125 493.582031 Z M 149.28125 418.53125 C 162.390625 426.0625 170.480469 428.019531 178.011719 424.109375 C 189.171875 418.8125 186.660156 404.859375 173.828125 395.371094 C 162.390625 387 152.621094 383.371094 143.691406 386.722656 C 134.210938 388.671875 130.019531 409.039063 149.28125 418.53125 Z M 47.988281 36.550781 L 53.570313 32.089844 L 55.800781 28.460938 L 54.96875 34.882813 L 62.21875 38.511719 L 65.851563 41.300781 L 61.378906 42.691406 L 52.179688 39.902344 Z M 78.128906 411 L 78.128906 416.582031 C 78.128906 423.269531 77.851563 430.8125 78.398438 433.871094 C 81.75 434.429688 84.539063 434.152344 86.21875 435.269531 C 86.78125 435.269531 87.050781 435.550781 87.050781 436.390625 C 87.050781 437.5 86.5 438.0625 85.660156 438.0625 C 84.820313 438.0625 79.800781 437.5 73.101563 437.5 C 66.128906 437.5 61.378906 438.0625 60.550781 438.0625 C 59.710938 438.0625 59.148438 437.5 59.148438 436.390625 C 59.148438 435.550781 59.429688 435.269531 59.988281 435.269531 C 60.832031 434.429688 64.730469 434.152344 66.691406 434.152344 C 68.082031 433.871094 67.800781 433.601563 67.800781 429.410156 C 68.082031 425.230469 68.082031 420.761719 68.082031 416.300781 L 68.082031 403.179688 C 68.082031 396.492188 67.800781 388.671875 67.800781 385.332031 C 63.898438 384.769531 61.378906 384.769531 59.988281 384.210938 C 59.429688 383.929688 59.148438 383.652344 59.148438 383.089844 C 59.148438 382.261719 59.710938 381.699219 60.550781 381.699219 C 61.378906 381.699219 63.621094 381.699219 67.238281 381.980469 L 81.75 381.980469 C 94.03125 381.980469 100.449219 381.421875 105.46875 381.421875 C 105.46875 380.582031 106.03125 379.191406 106.308594 378.351563 C 106.308594 378.070313 106.589844 377.230469 107.699219 377.230469 C 108.820313 377.230469 109.378906 377.789063 109.378906 379.191406 C 109.378906 380.300781 108.820313 383.929688 108.820313 386.160156 C 108.820313 389.511719 109.378906 392.582031 109.378906 393.421875 C 109.378906 394.8125 108.820313 395.652344 107.699219 395.652344 C 106.859375 395.652344 106.308594 395.089844 106.03125 393.980469 C 105.191406 392.582031 105.191406 389.789063 105.191406 388.949219 C 101.011719 386.441406 89.839844 385.882813 81.75 385.050781 L 79.800781 385.050781 C 78.960938 385.050781 78.679688 385.050781 78.398438 385.332031 C 77.851563 388.671875 78.128906 395.929688 78.128906 402.351563 L 78.128906 408.210938 L 81.75 408.210938 C 86.5 408.210938 99.890625 407.089844 102.960938 405.421875 C 103.238281 404.300781 103.800781 402.351563 104.070313 400.949219 C 104.351563 400.109375 104.910156 399.832031 105.46875 399.832031 C 106.308594 399.832031 106.859375 400.390625 106.859375 401.511719 C 106.859375 402.621094 106.308594 405.421875 106.308594 409.039063 C 106.308594 413.511719 106.859375 416.851563 106.859375 418.25 C 106.859375 419.089844 106.589844 419.921875 105.46875 419.921875 C 104.910156 419.921875 104.351563 419.652344 104.070313 419.089844 C 103.519531 417.410156 103.800781 413.230469 102.121094 412.671875 C 99.890625 411.550781 86.78125 411 81.75 411 Z M 59.988281 409.039063 C 59.988281 424.109375 47.988281 438.0625 30.96875 438.0625 C 10.878906 438.0625 0 425.5 0 409.039063 C 0 390.632813 14.230469 380.019531 30.96875 380.019531 C 49.667969 380.019531 59.988281 392.300781 59.988281 409.039063 Z M 48.550781 409.039063 C 48.550781 399 44.359375 383.089844 30.96875 383.089844 C 17.300781 383.089844 11.71875 393.980469 11.71875 409.039063 C 11.71875 419.371094 15.351563 434.710938 30.96875 434.710938 C 43.25 434.710938 48.550781 421.601563 48.550781 409.039063 Z M 58.589844 337.332031 C 58.589844 326.171875 53.011719 320.871094 47.429688 318.640625 C 38.78125 315.011719 17.019531 316.691406 17.019531 306.359375 C 17.019531 301.902344 22.320313 300.230469 27.070313 300.230469 C 37.949219 300.230469 47.429688 306.640625 51.898438 309.429688 C 51.898438 311.390625 51.898438 314.460938 53.851563 314.460938 C 55.25 314.460938 55.800781 313.621094 55.800781 311.671875 L 55.800781 301.339844 C 55.800781 296.601563 57.199219 287.671875 57.199219 286.832031 C 57.199219 285.722656 56.640625 285.160156 55.800781 285.160156 C 53.851563 285.160156 53.011719 290.179688 51.898438 294.371094 C 49.667969 294.089844 43.53125 292.691406 37.667969 292.691406 C 26.230469 292.691406 11.441406 297.160156 11.441406 313.621094 C 11.441406 344.3125 52.460938 328.410156 52.460938 345.152344 C 52.460938 349.609375 47.148438 351.5625 41.570313 351.5625 C 31.25 351.5625 19.53125 344.589844 15.070313 340.960938 C 14.511719 339.011719 14.789063 333.710938 12.839844 333.710938 C 11.441406 333.710938 11.160156 335.941406 11.160156 337.332031 L 11.160156 348.769531 C 11.160156 353.519531 10.050781 359.660156 10.050781 361.050781 C 10.050781 362.171875 10.320313 363.5625 11.441406 363.5625 C 13.667969 363.5625 14.511719 356.589844 14.511719 355.472656 C 21.210938 357.421875 25.949219 358.820313 34.039063 358.820313 C 45.480469 358.820313 58.589844 352.679688 58.589844 337.332031 Z M 443.078125 337.332031 C 443.078125 326.449219 437.78125 320.871094 432.199219 318.640625 C 423.550781 315.011719 401.511719 316.691406 401.511719 306.359375 C 401.511719 301.902344 406.53125 300.5 411.828125 300.5 C 422.429688 300.5 431.640625 306.921875 436.660156 309.429688 C 436.660156 311.390625 436.660156 314.730469 438.621094 314.730469 C 440.011719 314.730469 440.570313 313.902344 440.570313 311.941406 C 440.570313 309.429688 440.289063 304.410156 440.289063 301.339844 C 440.289063 296.882813 441.691406 287.949219 441.691406 286.832031 C 441.691406 285.722656 441.128906 285.160156 440.289063 285.160156 C 438.339844 285.160156 437.78125 290.179688 436.660156 294.652344 C 433.589844 293.8125 428.289063 292.691406 422.429688 292.691406 C 410.71875 292.691406 395.929688 297.441406 395.929688 313.621094 C 395.929688 344.03125 437.21875 329.242188 437.21875 345.152344 C 437.21875 349.609375 431.921875 351.5625 426.339844 351.5625 C 415.460938 351.5625 403.460938 344.589844 399.828125 340.960938 C 399 339.570313 399 333.710938 397.320313 333.710938 C 396.210938 333.710938 395.929688 335.660156 395.929688 337.609375 C 395.648438 339.289063 395.648438 341.242188 395.648438 343.191406 L 395.648438 348.769531 C 395.648438 353.519531 394.808594 359.660156 394.808594 361.050781 C 394.808594 362.171875 394.808594 363.5625 396.210938 363.5625 C 397.601563 363.5625 399.28125 356.589844 399.28125 355.75 C 405.96875 357.152344 410.441406 358.820313 418.53125 358.820313 C 430.25 358.820313 443.078125 352.960938 443.078125 337.332031 Z M 449.5 435.550781 C 449.5 434.710938 449.21875 434.429688 448.378906 434.152344 C 446.148438 432.761719 440.289063 431.921875 438.898438 431.921875 C 437.78125 428.289063 438.058594 421.882813 438.058594 416.582031 L 438.058594 411.550781 C 438.058594 405.140625 438.621094 399 438.621094 395.652344 C 438.621094 387.5625 436.109375 380.300781 425.78125 380.300781 C 416.019531 380.300781 405.128906 387.28125 400.671875 389.511719 C 400.671875 387.28125 400.949219 383.652344 400.949219 382.261719 C 400.949219 380.019531 400.390625 379.472656 399.28125 379.472656 C 398.160156 379.472656 394.25 381.421875 387.558594 382.8125 C 381.699219 383.929688 378.351563 384.492188 375.28125 385.332031 C 373.878906 385.601563 373.878906 385.882813 373.878906 386.722656 C 373.878906 387.839844 374.441406 388.402344 375.558594 388.402344 L 386.160156 388.402344 C 386.441406 394.25 386.71875 402.902344 386.71875 410.441406 L 386.71875 416.019531 C 386.71875 422.441406 386.71875 428.570313 386.160156 431.921875 C 384.769531 431.921875 378.628906 433.039063 376.121094 434.152344 C 375.558594 434.429688 375.28125 434.710938 375.28125 435.550781 C 375.28125 436.671875 375.839844 437.222656 376.671875 437.222656 C 377.789063 437.222656 384.210938 436.109375 393.421875 436.109375 C 401.230469 436.109375 406.53125 437.222656 407.371094 437.222656 C 408.480469 437.222656 409.039063 436.671875 409.039063 435.550781 C 409.039063 434.710938 408.761719 434.429688 407.921875 434.152344 C 406.25 433.039063 402.070313 431.921875 400.949219 431.921875 C 400.390625 428.570313 400.390625 422.710938 400.390625 416.019531 L 400.390625 410.441406 C 400.390625 402.902344 400.671875 398.160156 400.671875 393.699219 C 406.53125 390.632813 409.601563 387.5625 415.460938 387.5625 C 420.199219 387.5625 424.109375 390.632813 424.109375 397.601563 L 424.109375 416.582031 C 424.109375 422.160156 423.828125 428.019531 423.828125 431.921875 C 423.550781 431.921875 418.25 432.761719 416.851563 434.152344 C 416.019531 434.429688 415.738281 434.710938 415.738281 435.550781 C 415.738281 436.671875 416.300781 437.222656 417.410156 437.222656 C 418.25 437.222656 423.828125 436.109375 431.640625 436.109375 C 440.570313 436.109375 446.988281 437.222656 448.101563 437.222656 C 448.9375 437.222656 449.5 436.671875 449.5 435.550781 Z M 268.421875 402.070313 C 268.421875 396.492188 270.648438 383.652344 281.25 383.652344 C 291.570313 383.652344 291.851563 395.929688 291.851563 402.070313 Z M 305.25 406.53125 C 305.25 391.191406 297.988281 380.300781 282.648438 380.300781 C 265.351563 380.300781 253.628906 393.421875 253.628906 410.722656 C 253.628906 426.339844 264.789063 437.222656 279.300781 437.222656 C 289.058594 437.222656 295.199219 433.320313 298.828125 429.132813 C 305.800781 421.320313 304.691406 418.8125 303.289063 418.8125 C 300.5 418.8125 298.550781 428.289063 286.550781 428.289063 C 272.878906 428.289063 268.421875 412.109375 268.421875 406.53125 Z M 328.128906 402.070313 C 328.128906 396.492188 330.921875 383.652344 341.238281 383.652344 C 351.558594 383.652344 351.558594 396.210938 351.558594 402.070313 Z M 364.960938 406.53125 C 364.960938 391.742188 358.261719 380.300781 342.359375 380.300781 C 324.78125 380.300781 313.621094 393.980469 313.621094 410.722656 C 313.621094 426.339844 324.21875 437.222656 339.289063 437.222656 C 348.488281 437.222656 354.910156 433.320313 358.539063 429.132813 C 365.511719 421.320313 364.398438 418.8125 363 418.8125 C 359.929688 418.8125 358.820313 428.289063 346.261719 428.289063 C 332.871094 428.289063 328.128906 412.109375 328.128906 406.53125 Z M 240.789063 435.550781 C 240.789063 434.710938 240.511719 434.429688 239.679688 434.152344 C 236.609375 432.761719 227.679688 431.921875 225.730469 431.921875 C 225.449219 427.460938 225.171875 421.601563 225.171875 417.410156 C 225.171875 409.601563 225.730469 402.351563 227.679688 398.160156 C 229.070313 394.8125 231.859375 390.351563 233.261719 390.351563 C 234.929688 390.351563 235.210938 396.210938 241.070313 396.210938 C 244.699219 396.210938 248.609375 393.140625 248.609375 387.5625 C 248.609375 382.261719 245.261719 379.191406 240.789063 379.191406 C 231.859375 379.191406 227.121094 392.859375 224.890625 399.832031 L 224.609375 399.832031 L 224.609375 381.699219 C 224.609375 379.472656 224.328125 379.191406 223.21875 379.191406 C 222.941406 379.191406 218.75 380.582031 212.890625 382.539063 C 206.46875 383.929688 203.128906 383.929688 200.609375 384.769531 C 199.21875 385.050781 198.941406 385.601563 198.941406 386.441406 C 198.941406 387.5625 199.5 388.121094 200.609375 388.121094 L 202.851563 388.121094 C 204.800781 388.121094 206.46875 387.839844 208.710938 387.839844 L 211.21875 387.839844 C 211.5 394.25 211.78125 402.621094 211.78125 410.160156 L 211.78125 416.019531 C 211.78125 421.882813 211.78125 428.570313 211.21875 431.921875 C 209.820313 431.921875 203.679688 432.761719 201.449219 434.152344 C 200.609375 434.429688 200.339844 434.710938 200.339844 435.550781 C 200.339844 436.671875 200.890625 437.222656 201.730469 437.222656 C 202.851563 437.222656 209.261719 436.109375 218.46875 436.109375 C 229.910156 436.109375 238 437.222656 239.121094 437.222656 C 240.238281 437.222656 240.789063 436.671875 240.789063 435.550781 Z M 337.050781 316.132813 C 337.050781 309.710938 340.121094 294.371094 351.839844 294.371094 C 363.839844 294.371094 364.121094 309.152344 364.121094 316.132813 Z M 379.191406 320.871094 C 379.191406 303.570313 371.648438 290.742188 353.519531 290.742188 C 333.429688 290.742188 320.03125 306.921875 320.03125 325.621094 C 320.03125 344.589844 332.871094 356.3125 349.890625 356.3125 C 371.648438 356.3125 378.351563 337.609375 378.351563 336.78125 C 378.351563 335.660156 378.070313 335.101563 377.230469 335.101563 C 373.878906 335.101563 371.929688 345.980469 357.980469 345.980469 C 341.800781 345.980469 337.050781 327.851563 337.050781 320.871094 Z M 286.269531 331.480469 C 286.269531 339.011719 283.761719 347.941406 270.371094 347.941406 C 258.929688 347.941406 254.191406 338.449219 254.191406 325.0625 C 254.191406 312.78125 257.53125 296.601563 269.808594 296.601563 C 277.621094 296.601563 282.089844 301.339844 286.269531 304.972656 Z M 301.339844 310.832031 C 301.339844 285.722656 303.289063 241.632813 303.289063 212.609375 C 303.289063 209.539063 303.011719 207.589844 301.058594 207.589844 C 299.941406 207.589844 293.808594 209.820313 286.828125 211.78125 C 281.25 213.730469 276.511719 214.851563 272.039063 216.242188 C 270.929688 216.519531 270.371094 216.800781 270.371094 217.640625 C 270.371094 219.03125 270.929688 219.589844 272.320313 219.589844 C 274.28125 219.589844 279.300781 218.472656 281.808594 218.472656 C 285.988281 218.472656 285.71875 221.539063 285.71875 227.402344 C 285.988281 241.910156 286.269531 267.019531 286.269531 299.671875 C 282.089844 296.601563 275.949219 291.851563 266.738281 291.851563 C 248.878906 291.851563 236.050781 307.199219 236.050781 328.691406 C 236.050781 342.640625 243.03125 356.589844 260.878906 356.589844 C 275.109375 356.589844 280.96875 349.609375 286.269531 345.710938 C 286.269531 349.609375 286.550781 356.589844 295.199219 356.589844 C 308.039063 356.589844 317.800781 344.589844 317.800781 341.800781 C 317.800781 340.679688 317.238281 340.121094 316.128906 340.121094 C 314.449219 340.121094 308.871094 347.660156 304.410156 347.660156 C 301.339844 347.660156 301.339844 345.152344 301.339844 342.082031 Z M 198.378906 340.960938 C 194.761719 344.3125 190.011719 347.660156 185.550781 347.660156 C 181.078125 347.660156 178.289063 343.472656 178.289063 336.78125 C 178.289063 328.410156 181.359375 324.222656 187.78125 324.222656 C 191.410156 324.222656 194.761719 325.902344 198.378906 327.289063 Z M 198.101563 323.101563 C 193.921875 321.152344 188.339844 319.480469 181.640625 319.480469 C 172.148438 319.480469 161.828125 325.0625 161.828125 338.171875 C 161.828125 349.332031 168.808594 356.589844 178.011719 356.589844 C 186.109375 356.589844 194.480469 348.222656 198.101563 345.429688 L 198.101563 348.769531 C 198.101563 353.242188 198.660156 356.589844 203.398438 356.589844 C 215.398438 356.589844 226.839844 346.820313 226.839844 342.082031 C 226.839844 341.242188 226.28125 340.679688 225.449219 340.679688 C 224.328125 340.679688 219.871094 347.101563 214.839844 347.101563 C 213.449219 347.101563 212.890625 345.980469 212.890625 344.03125 C 212.890625 338.449219 214.289063 324.222656 214.289063 311.671875 C 214.289063 298.269531 208.429688 292.132813 194.761719 292.132813 C 181.640625 292.132813 166.019531 301.0625 166.019531 304.691406 C 166.019531 306.082031 166.570313 306.921875 167.691406 306.921875 C 168.808594 306.921875 171.320313 305.25 174.941406 304.132813 C 178.570313 302.179688 183.320313 301.339844 188.058594 301.339844 C 196.988281 301.339844 198.101563 306.640625 198.101563 314.730469 Z M 96.539063 309.152344 C 103.238281 305.53125 106.589844 302.179688 113.558594 302.179688 C 118.859375 302.179688 123.050781 305.25 123.050781 313.0625 L 123.050781 333.992188 C 123.050781 340.121094 123.328125 346.539063 122.769531 351.011719 C 121.648438 351.011719 116.628906 351.5625 114.960938 353.242188 C 114.121094 353.519531 113.839844 354.082031 113.839844 354.910156 C 113.839844 356.03125 114.398438 356.589844 115.238281 356.589844 C 116.351563 356.589844 122.488281 355.472656 131.421875 355.472656 C 141.460938 355.472656 148.71875 356.589844 149.828125 356.589844 C 150.671875 356.589844 151.230469 356.03125 151.230469 354.910156 C 151.230469 354.082031 150.949219 353.519531 150.390625 353.242188 C 147.320313 351.5625 140.898438 351.011719 139.230469 351.011719 C 138.671875 346.820313 138.671875 340.121094 138.671875 333.992188 L 138.671875 328.691406 C 138.671875 321.152344 139.230469 314.730469 139.230469 311.109375 C 139.230469 301.902344 136.71875 294.371094 124.71875 294.371094 C 114.121094 294.371094 101.839844 301.621094 96.539063 304.410156 C 96.539063 300.230469 96.539063 294.652344 96.820313 287.671875 C 97.101563 280.691406 97.101563 241.351563 96.820313 169.921875 L 96.820313 126.402344 L 105.191406 115.242188 L 105.46875 123.332031 L 98.769531 133.652344 L 97.378906 141.191406 L 106.03125 131.421875 C 105.191406 140.351563 103.238281 146.492188 99.890625 150.109375 L 101.28125 158.761719 C 111.050781 145.089844 114.960938 130.019531 113 113.5625 L 119.140625 128.351563 C 121.371094 135.332031 124.441406 137.28125 134.210938 146.492188 C 135.050781 136.160156 134.488281 127.511719 133.089844 120.539063 C 131.699219 113.5625 128.070313 104.632813 121.929688 93.191406 L 129.46875 99.609375 L 133.929688 101.839844 L 140.351563 109.382813 C 143.96875 111.609375 148.441406 115.519531 154.019531 121.101563 C 151.511719 111.332031 147.601563 103.519531 142.859375 97.660156 C 138.109375 91.800781 133.929688 85.941406 130.859375 80.082031 L 138.671875 81.480469 L 138.671875 74.222656 L 145.929688 81.480469 L 155.691406 82.3125 L 157.921875 77.851563 L 168.53125 82.3125 C 161.550781 71.152344 155.96875 65.011719 151.789063 63.902344 C 147.601563 62.5 142.859375 62.222656 137.28125 62.5 C 131.699219 62.78125 128.628906 60.832031 127.789063 56.640625 C 135.320313 52.460938 144.53125 46.320313 155.128906 37.671875 C 144.25 37.671875 137 38.230469 133.371094 39.621094 C 129.738281 41.019531 123.328125 44.921875 114.121094 51.339844 C 111.050781 43.25 116.628906 34.039063 132.261719 13.671875 C 119.980469 17.300781 109.101563 22.039063 99.609375 27.902344 L 96.820313 30.421875 C 90.960938 21.210938 84.261719 10.882813 76.730469 0 C 77.570313 13.402344 77.289063 25.671875 75.890625 36.832031 C 69.480469 28.179688 63.339844 22.039063 58.039063 18.421875 C 46.878906 23.722656 39.898438 27.351563 36.832031 29.582031 C 33.761719 31.53125 30.691406 34.039063 27.339844 36.832031 L 14.789063 36.269531 L 15.070313 39.621094 L 22.320313 42.410156 L 21.488281 48.550781 L 21.210938 57.199219 L 27.621094 58.601563 L 28.738281 53.019531 L 35.160156 52.742188 L 39.898438 45.480469 L 40.460938 50.5 L 58.039063 50.78125 C 56.640625 55.8125 53.570313 59.152344 48.550781 61.109375 C 43.53125 63.0625 38.511719 65.011719 33.761719 67.25 C 29.019531 69.480469 24 74.222656 18.691406 81.199219 C 13.390625 88.171875 10.320313 95.710938 8.929688 103.800781 C 20.648438 94.871094 29.019531 89.011719 33.761719 86.5 C 38.78125 83.710938 46.320313 80.921875 56.359375 78.132813 L 56.359375 83.710938 C 47.429688 90.402344 38.78125 97.660156 30.691406 105.75 C 25.109375 118.03125 22.601563 130.019531 22.878906 141.460938 L 25.949219 135.332031 L 28.738281 128.632813 L 36.269531 123.609375 L 39.898438 117.191406 L 39.339844 107.152344 L 45.199219 117.472656 L 50.21875 113.5625 L 46.601563 103.242188 L 49.667969 102.121094 L 52.738281 109.941406 L 54.691406 110.492188 L 54.96875 105.191406 L 54.96875 99.890625 L 63.339844 98.5 L 63.339844 104.910156 L 57.761719 114.402344 L 51.621094 121.101563 L 53.289063 148.441406 L 59.148438 154.859375 C 63.058594 142.582031 64.730469 131.699219 64.167969 122.492188 L 71.710938 123.609375 L 71.429688 146.210938 L 75.339844 147.039063 L 81.191406 136.722656 L 81.191406 274.28125 C 81.191406 312.222656 80.917969 340.121094 80.359375 351.011719 C 78.960938 351.011719 72.269531 351.839844 69.199219 353.242188 C 68.640625 353.519531 68.359375 354.082031 68.359375 354.910156 C 68.359375 356.03125 68.917969 356.589844 69.761719 356.589844 C 70.871094 356.589844 78.398438 355.472656 88.449219 355.472656 C 97.378906 355.472656 103.519531 356.589844 104.628906 356.589844 C 105.46875 356.589844 106.03125 356.03125 106.03125 354.910156 C 106.03125 354.082031 105.75 353.519531 104.910156 353.242188 C 102.679688 351.839844 97.660156 351.011719 96.539063 351.011719 L 96.539063 309.152344 "/>
</g>
</svg>
